<svg width="30" height="16" viewBox="0 0 30 16" fill="none" xmlns="http://www.w3.org/2000/svg">
<path d="M28.355 3.112C28.5632 3.09178 28.7734 3.11534 28.972 3.18116C29.1706 3.24699 29.3532 3.35364 29.5081 3.49424C29.663 3.63485 29.7868 3.8063 29.8715 3.9976C29.9562 4.18889 30 4.39579 30 4.605V7C30 7.13261 29.9473 7.25979 29.8536 7.35355C29.7598 7.44732 29.6326 7.5 29.5 7.5L29.118 7.5C28.422 7.5 27.936 7.003 27.649 6.628C27.6169 6.58286 27.5769 6.5439 27.531 6.513C27.5232 6.50799 27.5148 6.50396 27.506 6.501L27.5 6.5H27.497L27.487 6.503C27.477 6.507 27.459 6.517 27.434 6.539C27.3524 6.61552 27.2865 6.70724 27.24 6.809C27.1 7.09 27 7.51 27 8C27 8.492 27.1 8.912 27.24 9.19C27.2864 9.29212 27.3523 9.38418 27.434 9.461C27.4501 9.47569 27.4683 9.48783 27.488 9.497L27.498 9.5H27.506C27.5148 9.49705 27.5232 9.49302 27.531 9.488C27.5769 9.4571 27.6169 9.41814 27.649 9.373C27.936 8.998 28.422 8.501 29.118 8.501H29.5C29.6324 8.501 29.7595 8.55354 29.8532 8.64709C29.9469 8.74064 29.9997 8.86757 30 9L30 11.395C30 11.6042 29.9562 11.8111 29.8715 12.0024C29.7868 12.1937 29.663 12.3652 29.5081 12.5058C29.3532 12.6464 29.1706 12.753 28.972 12.8188C28.7734 12.8847 28.5632 12.9082 28.355 12.888L25.5 12.645V12.882C25.5 13.077 25.647 13.302 25.98 13.557C26.254 13.767 26.5 14.085 26.5 14.5C26.5 15.068 26.053 15.447 25.638 15.654C25.193 15.877 24.613 16 24 16C23.387 16 22.807 15.877 22.362 15.654C21.947 15.447 21.5 15.068 21.5 14.5C21.5 14.085 21.746 13.767 22.02 13.557C22.353 13.302 22.5 13.077 22.5 12.882V12.645L19.645 12.888C19.4368 12.9082 19.2266 12.8847 19.028 12.8188C18.8294 12.753 18.6468 12.6464 18.4919 12.5058C18.337 12.3652 18.2132 12.1937 18.1285 12.0024C18.0438 11.8111 18 11.6042 18 11.395L18 9C18 8.86739 18.0527 8.74021 18.1464 8.64645C18.2402 8.55268 18.3674 8.5 18.5 8.5H18.882C19.578 8.5 20.064 8.997 20.351 9.372C20.3831 9.41714 20.4231 9.4561 20.469 9.487C20.4768 9.49201 20.4852 9.49604 20.494 9.499L20.5 9.5H20.503L20.513 9.497C20.5324 9.48773 20.5502 9.47559 20.566 9.461C20.6476 9.38449 20.7135 9.29277 20.76 9.191C20.9 8.91 21 8.49 21 8C21 7.509 20.9 7.088 20.76 6.81C20.7136 6.70787 20.6477 6.6158 20.566 6.539C20.5499 6.52432 20.5317 6.51218 20.512 6.503L20.502 6.5H20.5L20.494 6.501C20.4852 6.50396 20.4768 6.50799 20.469 6.513C20.442 6.529 20.401 6.563 20.351 6.628C20.064 7.003 19.578 7.5 18.882 7.5L18.5 7.5C18.3674 7.5 18.2402 7.44732 18.1464 7.35355C18.0527 7.25978 18 7.13261 18 7V4.605C18 4.39579 18.0438 4.18889 18.1285 3.9976C18.2132 3.8063 18.337 3.63484 18.4919 3.49424C18.6468 3.35364 18.8294 3.24699 19.028 3.18116C19.2266 3.11534 19.4368 3.09178 19.645 3.112L22.5 3.356V3.118C22.5 2.923 22.353 2.698 22.02 2.443C21.746 2.233 21.5 1.915 21.5 1.5C21.5 0.932 21.947 0.553 22.362 0.346C22.807 0.123 23.387 -2.67951e-08 24 0C24.613 2.67951e-08 25.193 0.123 25.638 0.346C26.053 0.553 26.5 0.932 26.5 1.5C26.5 1.915 26.254 2.233 25.98 2.443C25.647 2.698 25.5 2.923 25.5 3.118V3.356L28.355 3.112Z" fill="white"/>
<path d="M12.888 12.355C12.9082 12.5632 12.8847 12.7734 12.8188 12.972C12.753 13.1706 12.6464 13.3532 12.5058 13.5081C12.3652 13.663 12.1937 13.7868 12.0024 13.8715C11.8111 13.9562 11.6042 14 11.395 14H9C8.86739 14 8.74021 13.9473 8.64645 13.8536C8.55268 13.7598 8.5 13.6326 8.5 13.5L8.5 13.118C8.5 12.422 8.997 11.936 9.372 11.649C9.41714 11.6169 9.4561 11.5769 9.487 11.531C9.49201 11.5232 9.49604 11.5148 9.499 11.506L9.5 11.5V11.497L9.497 11.487C9.493 11.477 9.483 11.459 9.461 11.434C9.38448 11.3524 9.29276 11.2865 9.191 11.24C8.91 11.1 8.49 11 8 11C7.508 11 7.088 11.1 6.81 11.24C6.70788 11.2864 6.61582 11.3523 6.539 11.434C6.52431 11.4501 6.51217 11.4683 6.503 11.488L6.5 11.498V11.506C6.50295 11.5148 6.50698 11.5232 6.512 11.531C6.5429 11.5769 6.58186 11.6169 6.627 11.649C7.002 11.936 7.499 12.422 7.499 13.118V13.5C7.499 13.6324 7.44646 13.7595 7.35291 13.8532C7.25935 13.9469 7.13243 13.9997 7 14H4.605C4.39579 14 4.18889 13.9562 3.9976 13.8715C3.8063 13.7868 3.63484 13.663 3.49424 13.5081C3.35364 13.3532 3.24699 13.1706 3.18116 12.972C3.11534 12.7734 3.09178 12.5632 3.112 12.355L3.355 9.5H3.118C2.923 9.5 2.698 9.647 2.443 9.98C2.233 10.254 1.915 10.5 1.5 10.5C0.932 10.5 0.553 10.053 0.346 9.638C0.123 9.193 -5.35902e-08 8.613 0 8C5.35902e-08 7.387 0.123 6.807 0.346 6.362C0.553 5.947 0.932 5.5 1.5 5.5C1.915 5.5 2.233 5.746 2.443 6.02C2.698 6.353 2.923 6.5 3.118 6.5H3.355L3.112 3.645C3.09178 3.43677 3.11534 3.22661 3.18117 3.02802C3.24699 2.82944 3.35364 2.64682 3.49424 2.4919C3.63485 2.33698 3.8063 2.21318 3.9976 2.12847C4.18889 2.04376 4.39579 2 4.605 2L7 2C7.13261 2 7.25979 2.05268 7.35355 2.14645C7.44732 2.24021 7.5 2.36739 7.5 2.5V2.882C7.5 3.578 7.003 4.064 6.628 4.351C6.58286 4.38307 6.5439 4.42305 6.513 4.469C6.50799 4.47681 6.50396 4.48521 6.501 4.494L6.5 4.5V4.503L6.503 4.513C6.51227 4.53237 6.52441 4.55024 6.539 4.566C6.61551 4.64763 6.70723 4.71353 6.809 4.76C7.09 4.9 7.51 5 8 5C8.491 5 8.912 4.9 9.19 4.76C9.29213 4.71365 9.3842 4.64774 9.461 4.566C9.47568 4.54993 9.48782 4.53173 9.497 4.512L9.5 4.502V4.5L9.499 4.494C9.49604 4.48521 9.49201 4.47681 9.487 4.469C9.471 4.442 9.437 4.401 9.372 4.351C8.997 4.064 8.5 3.578 8.5 2.882L8.5 2.5C8.5 2.36739 8.55268 2.24021 8.64645 2.14645C8.74022 2.05268 8.86739 2 9 2L11.395 2C11.6042 2 11.8111 2.04376 12.0024 2.12847C12.1937 2.21319 12.3652 2.33698 12.5058 2.4919C12.6464 2.64682 12.753 2.82944 12.8188 3.02802C12.8847 3.22661 12.9082 3.43677 12.888 3.645L12.644 6.5H12.882C13.077 6.5 13.302 6.353 13.557 6.02C13.767 5.746 14.085 5.5 14.5 5.5C15.068 5.5 15.447 5.947 15.654 6.362C15.877 6.807 16 7.387 16 8C16 8.613 15.877 9.193 15.654 9.638C15.447 10.053 15.068 10.5 14.5 10.5C14.085 10.5 13.767 10.254 13.557 9.98C13.302 9.647 13.077 9.5 12.882 9.5H12.644L12.888 12.355Z" fill="white"/>
</svg>
