<svg width="31" height="22" viewBox="0 0 31 22" fill="none" xmlns="http://www.w3.org/2000/svg">
<path d="M23.932 0.727012C23.689 -0.242988 22.312 -0.242988 22.068 0.727012L21.997 1.01301C21.9555 1.17922 21.8702 1.33128 21.7501 1.45342C21.6299 1.57556 21.4793 1.66332 21.3138 1.7076C21.1483 1.75189 20.974 1.75107 20.8089 1.70525C20.6438 1.65943 20.494 1.57026 20.375 1.44701L20.17 1.23601C19.475 0.517012 18.282 1.20601 18.557 2.16701L18.637 2.45101C18.684 2.61556 18.6862 2.78968 18.6433 2.95534C18.6004 3.12101 18.514 3.2722 18.3931 3.39326C18.2721 3.51431 18.121 3.60084 17.9553 3.64387C17.7897 3.6869 17.6156 3.68488 17.451 3.63801L17.167 3.55701C16.207 3.28201 15.517 4.47501 16.236 5.17001L16.447 5.37501C16.5703 5.49401 16.6594 5.64381 16.7053 5.80889C16.7511 5.97397 16.7519 6.1483 16.7076 6.3138C16.6633 6.4793 16.5756 6.62993 16.4534 6.75007C16.3313 6.87021 16.1792 6.95547 16.013 6.99701L15.727 7.06801C14.757 7.31101 14.757 8.68801 15.727 8.93201L16.013 9.00301C16.1792 9.04455 16.3313 9.12982 16.4534 9.24995C16.5756 9.37009 16.6633 9.52072 16.7076 9.68622C16.7519 9.85172 16.7511 10.0261 16.7053 10.1911C16.6594 10.3562 16.5703 10.506 16.447 10.625L16.236 10.83C15.517 11.525 16.206 12.718 17.167 12.443L17.451 12.363C17.6157 12.3159 17.7899 12.3137 17.9557 12.3566C18.1215 12.3996 18.2728 12.4861 18.3939 12.6072C18.5149 12.7283 18.6014 12.8795 18.6444 13.0453C18.6873 13.2111 18.6851 13.3854 18.638 13.55L18.557 13.833C18.282 14.793 19.475 15.483 20.17 14.764L20.375 14.553C20.494 14.4298 20.6438 14.3406 20.8089 14.2948C20.974 14.2489 21.1483 14.2481 21.3138 14.2924C21.4793 14.3367 21.6299 14.4245 21.7501 14.5466C21.8702 14.6687 21.9555 14.8208 21.997 14.987L22.068 15.273C22.311 16.243 23.688 16.243 23.932 15.273L24.003 14.987C24.0446 14.8208 24.1298 14.6687 24.25 14.5466C24.3701 14.4245 24.5207 14.3367 24.6862 14.2924C24.8517 14.2481 25.0261 14.2489 25.1911 14.2948C25.3562 14.3406 25.506 14.4298 25.625 14.553L25.83 14.764C26.525 15.483 27.718 14.794 27.443 13.833L27.363 13.549C27.3159 13.3844 27.3137 13.2101 27.3566 13.0443C27.3996 12.8785 27.4861 12.7273 27.6072 12.6062C27.7283 12.4851 27.8795 12.3986 28.0453 12.3556C28.2111 12.3127 28.3854 12.3149 28.55 12.362L28.833 12.443C29.793 12.718 30.483 11.525 29.764 10.83L29.553 10.625C29.4298 10.506 29.3406 10.3562 29.2948 10.1911C29.249 10.0261 29.2481 9.85172 29.2924 9.68622C29.3367 9.52072 29.4245 9.37009 29.5466 9.24995C29.6687 9.12982 29.8208 9.04455 29.987 9.00301L30.273 8.93201C31.243 8.68901 31.243 7.31201 30.273 7.06801L29.987 6.99701C29.8208 6.95547 29.6687 6.87021 29.5466 6.75007C29.4245 6.62993 29.3367 6.4793 29.2924 6.3138C29.2481 6.1483 29.249 5.97397 29.2948 5.80889C29.3406 5.64381 29.4298 5.49401 29.553 5.37501L29.764 5.17001C30.483 4.47501 29.794 3.28201 28.833 3.55701L28.549 3.63701C28.3845 3.68402 28.2103 3.68619 28.0447 3.6433C27.879 3.6004 27.7278 3.51401 27.6068 3.39305C27.4857 3.2721 27.3992 3.12098 27.3562 2.95535C27.3131 2.78972 27.3151 2.6156 27.362 2.45101L27.443 2.16701C27.718 1.20701 26.525 0.517012 25.83 1.23601L25.625 1.44701C25.506 1.57026 25.3562 1.65943 25.1911 1.70525C25.0261 1.75107 24.8517 1.75189 24.6862 1.7076C24.5207 1.66332 24.3701 1.57556 24.25 1.45342C24.1298 1.33128 24.0446 1.17922 24.003 1.01301L23.932 0.727012ZM23 12.997C22.3378 13.0064 21.6803 12.884 21.0658 12.6371C20.4512 12.3901 19.8919 12.0235 19.4203 11.5585C18.9487 11.0935 18.5742 10.5395 18.3186 9.92848C18.0629 9.3175 17.9313 8.66181 17.9313 7.99951C17.9313 7.33722 18.0629 6.68152 18.3186 6.07054C18.5742 5.45956 18.9487 4.90548 19.4203 4.44049C19.8919 3.9755 20.4512 3.60888 21.0658 3.36193C21.6803 3.11499 22.3378 2.99264 23 3.00201C24.3256 3.00201 25.5968 3.52859 26.5341 4.46589C27.4714 5.4032 27.998 6.67446 27.998 8.00001C27.998 9.32556 27.4714 10.5968 26.5341 11.5341C25.5968 12.4714 24.3256 12.998 23 12.998V12.997Z" fill="white"/>
<path d="M8.93201 6.72701C8.68901 5.75701 7.31201 5.75701 7.06801 6.72701L6.99701 7.01301C6.95547 7.17922 6.87021 7.33128 6.75007 7.45342C6.62993 7.57556 6.4793 7.66332 6.3138 7.7076C6.1483 7.75189 5.97397 7.75107 5.80889 7.70525C5.64381 7.65943 5.49401 7.57026 5.37501 7.44701L5.17001 7.23601C4.47501 6.51701 3.28201 7.20601 3.55701 8.16701L3.63701 8.45101C3.68402 8.61556 3.68619 8.78968 3.6433 8.95534C3.6004 9.12101 3.51401 9.2722 3.39305 9.39326C3.2721 9.51431 3.12098 9.60084 2.95535 9.64387C2.78972 9.6869 2.6156 9.68488 2.45101 9.63801L2.16701 9.55701C1.20701 9.28201 0.517012 10.475 1.23601 11.17L1.44701 11.375C1.57026 11.494 1.65943 11.6438 1.70525 11.8089C1.75107 11.974 1.75189 12.1483 1.7076 12.3138C1.66332 12.4793 1.57556 12.6299 1.45342 12.7501C1.33128 12.8702 1.17922 12.9555 1.01301 12.997L0.727012 13.068C-0.242988 13.311 -0.242988 14.688 0.727012 14.932L1.01301 15.003C1.17922 15.0446 1.33128 15.1298 1.45342 15.25C1.57556 15.3701 1.66332 15.5207 1.7076 15.6862C1.75189 15.8517 1.75107 16.0261 1.70525 16.1911C1.65943 16.3562 1.57026 16.506 1.44701 16.625L1.23601 16.83C0.517012 17.525 1.20601 18.718 2.16701 18.443L2.45101 18.363C2.61566 18.3159 2.78991 18.3137 2.95569 18.3566C3.12148 18.3996 3.27276 18.4861 3.39385 18.6072C3.51495 18.7283 3.60144 18.8795 3.64438 19.0453C3.68731 19.2111 3.68511 19.3854 3.63801 19.55L3.55701 19.833C3.28201 20.793 4.47501 21.483 5.17001 20.764L5.37501 20.553C5.49401 20.4298 5.64381 20.3406 5.80889 20.2948C5.97397 20.249 6.1483 20.2481 6.3138 20.2924C6.4793 20.3367 6.62993 20.4245 6.75007 20.5466C6.87021 20.6687 6.95547 20.8208 6.99701 20.987L7.06801 21.273C7.31101 22.243 8.68801 22.243 8.93201 21.273L9.00301 20.987C9.04455 20.8208 9.12982 20.6687 9.24995 20.5466C9.37009 20.4245 9.52072 20.3367 9.68622 20.2924C9.85172 20.2481 10.0261 20.249 10.1911 20.2948C10.3562 20.3406 10.506 20.4298 10.625 20.553L10.83 20.764C11.525 21.483 12.718 20.794 12.443 19.833L12.363 19.549C12.3159 19.3844 12.3137 19.2101 12.3566 19.0443C12.3996 18.8785 12.4861 18.7273 12.6072 18.6062C12.7283 18.4851 12.8795 18.3986 13.0453 18.3556C13.2111 18.3127 13.3854 18.3149 13.55 18.362L13.833 18.443C14.793 18.718 15.483 17.525 14.764 16.83L14.553 16.625C14.4298 16.506 14.3406 16.3562 14.2948 16.1911C14.2489 16.0261 14.2481 15.8517 14.2924 15.6862C14.3367 15.5207 14.4245 15.3701 14.5466 15.25C14.6687 15.1298 14.8208 15.0446 14.987 15.003L15.273 14.932C16.243 14.689 16.243 13.312 15.273 13.068L14.987 12.997C14.8208 12.9555 14.6687 12.8702 14.5466 12.7501C14.4245 12.6299 14.3367 12.4793 14.2924 12.3138C14.2481 12.1483 14.2489 11.974 14.2948 11.8089C14.3406 11.6438 14.4298 11.494 14.553 11.375L14.764 11.17C15.483 10.475 14.794 9.28201 13.833 9.55701L13.549 9.63701C13.3845 9.68402 13.2103 9.68619 13.0447 9.6433C12.879 9.6004 12.7278 9.51401 12.6068 9.39305C12.4857 9.27209 12.3992 9.12098 12.3562 8.95535C12.3131 8.78972 12.3151 8.6156 12.362 8.45101L12.443 8.16701C12.718 7.20701 11.525 6.51701 10.83 7.23601L10.625 7.44701C10.506 7.57026 10.3562 7.65943 10.1911 7.70525C10.0261 7.75107 9.85172 7.75189 9.68622 7.7076C9.52072 7.66332 9.37009 7.57556 9.24995 7.45342C9.12982 7.33128 9.04455 7.17922 9.00301 7.01301L8.93201 6.72701ZM8.00001 18.997C7.33778 19.0064 6.68029 18.884 6.06576 18.6371C5.45122 18.3901 4.8919 18.0235 4.42028 17.5585C3.94867 17.0935 3.57417 16.5395 3.31856 15.9285C3.06295 15.3175 2.93132 14.6618 2.93132 13.9995C2.93132 13.3372 3.06295 12.6815 3.31856 12.0705C3.57417 11.4596 3.94867 10.9055 4.42028 10.4405C4.8919 9.9755 5.45122 9.60888 6.06576 9.36193C6.68029 9.11499 7.33778 8.99264 8.00001 9.00201C9.32556 9.00201 10.5968 9.52859 11.5341 10.4659C12.4714 11.4032 12.998 12.6745 12.998 14C12.998 15.3256 12.4714 16.5968 11.5341 17.5341C10.5968 18.4714 9.32556 18.998 8.00001 18.998V18.997Z" fill="white"/>
</svg>
