<svg width="1008" height="623" viewBox="0 0 1008 623" fill="none" xmlns="http://www.w3.org/2000/svg">
<g filter="url(#filter0_f)">
<ellipse cx="504.5" cy="574" rx="452.5" ry="5" fill="black"/>
</g>
<path d="M126 1H886C900.912 1 913 13.0883 913 28V550C913 551.657 911.657 553 910 553H102C100.343 553 99 551.657 99 550V28C99 13.0883 111.088 1 126 1Z" fill="#1A202C" stroke="#4A5568" stroke-width="2"/>
<path d="M103 27C103 14.8497 112.85 5 125 5H887C899.15 5 909 14.8497 909 27V533H103V27Z" fill="black"/>
<rect x="124" y="33" width="761" height="478" fill="white"/>
<path d="M470.902 545V539.274H470.972L473.047 543.915H474.165L476.234 539.274H476.304V545H477.846V536.335H476.113L473.638 541.928H473.587L471.118 536.335H469.372V545H470.902ZM483.318 544.181H483.388V545H484.968V540.449C484.968 538.881 483.788 538.157 482.239 538.157C480.296 538.157 479.573 539.198 479.522 540.322H481.083C481.128 539.782 481.521 539.42 482.207 539.42C482.912 539.42 483.318 539.795 483.318 540.468V541.077H481.674C480.112 541.077 479.274 541.852 479.274 543.058C479.274 544.327 480.176 545.102 481.49 545.102C482.48 545.102 483.051 544.676 483.318 544.181ZM482.029 543.883C481.471 543.883 480.938 543.578 480.938 542.95C480.938 542.436 481.299 542.08 482.036 542.08H483.318V542.791C483.318 543.445 482.747 543.883 482.029 543.883ZM486.295 541.877C486.295 543.838 487.425 545.121 489.285 545.121C490.878 545.121 491.957 544.321 492.097 542.816H490.554C490.478 543.331 490.116 543.781 489.374 543.781C488.51 543.781 487.971 543.058 487.971 541.871V541.337C487.971 540.188 488.498 539.478 489.367 539.478C489.989 539.478 490.434 539.96 490.522 540.519H492.065C492.027 539.224 490.992 538.145 489.291 538.145C487.412 538.145 486.295 539.452 486.295 541.318V541.877ZM497.08 545.089C498.641 545.089 499.65 543.934 499.65 541.921V541.331C499.65 539.274 498.616 538.176 497.086 538.176C496.197 538.176 495.448 538.614 495.15 539.243H495.08V535.878H493.404V545H495.055V543.959H495.118C495.455 544.651 496.127 545.089 497.08 545.089ZM496.553 543.756C495.645 543.756 495.067 543.102 495.067 541.858V541.401C495.067 540.157 495.651 539.516 496.553 539.516C497.372 539.516 497.937 540.163 497.937 541.401V541.864C497.937 543.096 497.372 543.756 496.553 543.756ZM503.865 538.145C501.878 538.145 500.78 539.509 500.78 541.369V541.864C500.78 543.819 501.878 545.121 503.865 545.121C505.852 545.121 506.944 543.819 506.944 541.858V541.363C506.944 539.503 505.846 538.145 503.865 538.145ZM503.865 539.439C504.83 539.439 505.255 540.265 505.255 541.363V541.883C505.255 542.95 504.836 543.819 503.865 543.819C502.888 543.819 502.469 542.943 502.469 541.883V541.363C502.469 540.271 502.9 539.439 503.865 539.439ZM511.152 538.145C509.166 538.145 508.067 539.509 508.067 541.369V541.864C508.067 543.819 509.166 545.121 511.152 545.121C513.139 545.121 514.231 543.819 514.231 541.858V541.363C514.231 539.503 513.133 538.145 511.152 538.145ZM511.152 539.439C512.117 539.439 512.542 540.265 512.542 541.363V541.883C512.542 542.95 512.124 543.819 511.152 543.819C510.175 543.819 509.756 542.943 509.756 541.883V541.363C509.756 540.271 510.188 539.439 511.152 539.439ZM517.31 542.689L517.786 542.131L519.709 545H521.683L519.062 541.172L521.518 538.265H519.582L517.386 541.033H517.31V535.878H515.634V545H517.31V542.689ZM526.031 545L526.717 542.772H529.605L530.284 545H532.106L529.218 536.335H527.206L524.298 545H526.031ZM528.208 537.992L529.262 541.496H527.072L528.132 537.992H528.208ZM532.995 536.596C532.995 537.116 533.426 537.472 533.94 537.472C534.461 537.472 534.886 537.116 534.886 536.596C534.886 536.075 534.461 535.713 533.94 535.713C533.426 535.713 532.995 536.075 532.995 536.596ZM533.109 545H534.778V538.265H533.109V545ZM536.511 545H538.219V541.16C538.219 540.258 538.6 539.598 539.698 539.598C539.958 539.598 540.225 539.617 540.358 539.655V538.208C540.225 538.183 540.053 538.164 539.825 538.164C538.904 538.164 538.403 538.76 538.25 539.192H538.181V538.265H536.511V545Z" fill="#A0AEC0"/>
<path d="M0 552C0 550.895 0.895431 550 2 550H1006C1007.1 550 1008 550.895 1008 552V556H0V552Z" fill="#A3ACB1"/>
<path d="M0 552C0 550.895 0.895431 550 2 550H1006C1007.1 550 1008 550.895 1008 552V556H0V552Z" fill="url(#paint0_linear)"/>
<path d="M0 556H1008L987.646 560.105C961.613 565.355 935.123 568 908.566 568H97.9089C68.724 568 39.6267 564.806 11.1367 558.475L0 556Z" fill="#647279"/>
<path d="M0 556H1008L987.646 560.105C961.613 565.355 935.123 568 908.566 568H97.9089C68.724 568 39.6267 564.806 11.1367 558.475L0 556Z" fill="url(#paint1_linear)"/>
<path fill-rule="evenodd" clip-rule="evenodd" d="M430.033 550C430.547 553.351 428.052 556 436 556H573C580.948 556 578.453 553.351 578.967 550H430.033Z" fill="#96A1A8"/>
<path fill-rule="evenodd" clip-rule="evenodd" d="M430.033 550C430.547 553.351 428.052 556 436 556H573C580.948 556 578.453 553.351 578.967 550H430.033Z" fill="url(#paint2_linear)"/>
<rect x="124" y="33" width="761" height="110" fill="#25899F"/>
<rect x="147" y="177" width="160" height="294" fill="#25899F" fill-opacity="0.46"/>
<rect x="330" y="177" width="510" height="115" fill="#25899F" fill-opacity="0.46"/>
<rect x="330" y="312" width="150" height="95" fill="#25899F" fill-opacity="0.46"/>
<rect x="330" y="427" width="150" height="84" fill="#25899F" fill-opacity="0.46"/>
<rect x="510" y="312" width="150" height="95" fill="#25899F" fill-opacity="0.46"/>
<rect x="510" y="427" width="150" height="84" fill="#25899F" fill-opacity="0.46"/>
<rect x="690" y="312" width="150" height="95" fill="#25899F" fill-opacity="0.46"/>
<rect x="690" y="427" width="150" height="84" fill="#25899F" fill-opacity="0.46"/>
<defs>
<filter id="filter0_f" x="8" y="525" width="993" height="98" filterUnits="userSpaceOnUse" color-interpolation-filters="sRGB">
<feFlood flood-opacity="0" result="BackgroundImageFix"/>
<feBlend mode="normal" in="SourceGraphic" in2="BackgroundImageFix" result="shape"/>
<feGaussianBlur stdDeviation="22" result="effect1_foregroundBlur"/>
</filter>
<linearGradient id="paint0_linear" x1="-1.94452e-10" y1="553" x2="1008" y2="553" gradientUnits="userSpaceOnUse">
<stop stop-color="#0D1012"/>
<stop offset="0.0295345" stop-color="#CAD4DB"/>
<stop offset="0.0625" stop-color="#242729"/>
<stop offset="0.133609" stop-color="#A3ACB1"/>
<stop offset="0.865967" stop-color="#A3ACB1"/>
<stop offset="0.941937" stop-color="#242729"/>
<stop offset="0.971275" stop-color="#CAD4DB"/>
<stop offset="0.996436" stop-color="#0D1012"/>
</linearGradient>
<linearGradient id="paint1_linear" x1="504" y1="556" x2="504" y2="568" gradientUnits="userSpaceOnUse">
<stop stop-color="#7A7F83"/>
<stop offset="1" stop-color="#0B0B0E"/>
</linearGradient>
<linearGradient id="paint2_linear" x1="437.5" y1="553.643" x2="574.5" y2="553.643" gradientUnits="userSpaceOnUse">
<stop stop-color="#3C3C3C"/>
<stop offset="0.317518" stop-color="#3C3C3C" stop-opacity="0"/>
<stop offset="0.660584" stop-color="#3C3C3C" stop-opacity="0"/>
<stop offset="1" stop-color="#444444"/>
</linearGradient>
</defs>
</svg>
